<?xml version="1.0"?>
<svg xmlns="http://www.w3.org/2000/svg" viewBox="0 0 24 24">
    <path d="M 11.984375 0.98632812 A 1.0001 1.0001 0 0 0 11 2 L 11 4.0800781 C 7.6236149 4.5711521 5 7.4946461 5 11 L 5 12 C 3.3545455 12 2 13.354545 2 15 L 2 19 L 4 19 L 4 15 C 4 14.445455 4.4454545 14 5 14 L 5 18 C 5 19.645455 6.3545455 21 8 21 L 9.1875 21 C 9.604757 22.157429 10.706491 23 12 23 C 13.293509 23 14.395243 22.157429 14.8125 21 L 16 21 C 17.645455 21 19 19.645455 19 18 L 19 14 C 19.554545 14 20 14.445455 20 15 L 20 19 L 22 19 L 22 15 C 22 13.354545 20.645455 12 19 12 L 19 11 C 19 7.4946461 16.376385 4.5711521 13 4.0800781 L 13 2 A 1.0001 1.0001 0 0 0 11.984375 0.98632812 z M 11.882812 6.0058594 A 1.0001 1.0001 0 0 0 12.125 6.0058594 C 14.821571 6.0732196 17 8.2876636 17 11 C 17 11.554545 16.554545 12 16 12 L 8 12 C 7.4454545 12 7 11.554545 7 11 C 7 8.2850317 9.1826165 6.0691041 11.882812 6.0058594 z M 9 9 A 1 1 0 0 0 8 10 A 1 1 0 0 0 9 11 A 1 1 0 0 0 10 10 A 1 1 0 0 0 9 9 z M 15 9 A 1 1 0 0 0 14 10 A 1 1 0 0 0 15 11 A 1 1 0 0 0 16 10 A 1 1 0 0 0 15 9 z M 7 13.8125 C 7.3149207 13.92603 7.6480538 14 8 14 L 16 14 C 16.351946 14 16.685079 13.92603 17 13.8125 L 17 18 C 17 18.554545 16.554545 19 16 19 L 8 19 C 7.4454545 19 7 18.554545 7 18 L 7 13.8125 z"/>
</svg>
